<svg xmlns="http://www.w3.org/2000/svg" xmlns:xlink="http://www.w3.org/1999/xlink" width="500" zoomAndPan="magnify" viewBox="0 0 375 149.999998" height="200" preserveAspectRatio="xMidYMid meet" version="1.0"><defs><g/></defs><g fill="#ff0000" fill-opacity="1"><g transform="translate(6.883104, 111.965986)"><g><path d="M 34.875 -64.390625 C 34.9375 -64.828125 35.109375 -65.171875 35.390625 -65.421875 C 35.671875 -65.671875 36.03125 -65.796875 36.46875 -65.796875 L 50.671875 -65.796875 C 51.109375 -65.796875 51.4375 -65.671875 51.65625 -65.421875 C 51.875 -65.171875 51.953125 -64.828125 51.890625 -64.390625 L 44.09375 -1.40625 C 44.019531 -0.96875 43.859375 -0.625 43.609375 -0.375 C 43.359375 -0.125 43.015625 0 42.578125 0 L 26.3125 0 C 25.5625 0 25.125 -0.40625 25 -1.21875 L 21.4375 -30.078125 C 21.4375 -30.265625 21.375 -30.359375 21.25 -30.359375 C 21.125 -30.359375 21.0625 -30.265625 21.0625 -30.078125 L 17.671875 -1.40625 C 17.609375 -0.96875 17.4375 -0.625 17.15625 -0.375 C 16.875 -0.125 16.546875 0 16.171875 0 L 1.875 0 C 1.5 0 1.203125 -0.125 0.984375 -0.375 C 0.765625 -0.625 0.6875 -0.96875 0.75 -1.40625 L 8.453125 -64.390625 C 8.515625 -64.828125 8.6875 -65.171875 8.96875 -65.421875 C 9.257812 -65.671875 9.59375 -65.796875 9.96875 -65.796875 L 26.03125 -65.796875 C 26.789062 -65.796875 27.234375 -65.390625 27.359375 -64.578125 L 31.015625 -35.53125 C 31.015625 -35.34375 31.078125 -35.28125 31.203125 -35.34375 C 31.328125 -35.40625 31.421875 -35.5 31.484375 -35.625 Z M 34.875 -64.390625 "/></g></g></g><g fill="#ff0000" fill-opacity="1"><g transform="translate(61.677059, 111.965986)"><g><path d="M 0.65625 0 C 0.21875 0 -0.109375 -0.125 -0.328125 -0.375 C -0.546875 -0.625 -0.625 -0.96875 -0.5625 -1.40625 L 1.03125 -14.1875 C 1.15625 -14.882812 1.375 -15.484375 1.6875 -15.984375 L 23.40625 -50.109375 C 23.59375 -50.484375 23.5 -50.671875 23.125 -50.671875 L 6.859375 -50.671875 C 6.421875 -50.671875 6.09375 -50.796875 5.875 -51.046875 C 5.65625 -51.296875 5.578125 -51.640625 5.640625 -52.078125 L 7.140625 -64.390625 C 7.203125 -64.828125 7.375 -65.171875 7.65625 -65.421875 C 7.9375 -65.671875 8.296875 -65.796875 8.734375 -65.796875 L 42.296875 -65.796875 C 42.671875 -65.796875 42.96875 -65.671875 43.1875 -65.421875 C 43.40625 -65.171875 43.484375 -64.828125 43.421875 -64.390625 L 41.921875 -51.609375 C 41.859375 -51.171875 41.640625 -50.570312 41.265625 -49.8125 L 19.359375 -15.703125 C 19.046875 -15.328125 19.140625 -15.140625 19.640625 -15.140625 L 36.09375 -15.140625 C 36.46875 -15.140625 36.765625 -15.007812 36.984375 -14.75 C 37.203125 -14.5 37.28125 -14.15625 37.21875 -13.71875 L 35.71875 -1.40625 C 35.65625 -0.96875 35.484375 -0.625 35.203125 -0.375 C 34.921875 -0.125 34.59375 0 34.21875 0 Z M 0.65625 0 "/></g></g></g><g fill="#ff0000" fill-opacity="1"><g transform="translate(106.978597, 111.965986)"><g><path d="M 38.640625 -64.765625 C 39.015625 -65.453125 39.578125 -65.796875 40.328125 -65.796875 L 54.609375 -65.796875 C 54.984375 -65.796875 55.28125 -65.671875 55.5 -65.421875 C 55.726562 -65.171875 55.804688 -64.828125 55.734375 -64.390625 L 48.03125 -1.40625 C 47.96875 -0.96875 47.796875 -0.625 47.515625 -0.375 C 47.234375 -0.125 46.90625 0 46.53125 0 L 32.046875 0 C 31.671875 0 31.375 -0.125 31.15625 -0.375 C 30.9375 -0.625 30.859375 -0.96875 30.921875 -1.40625 L 35.625 -39.859375 C 35.6875 -40.109375 35.640625 -40.25 35.484375 -40.28125 C 35.328125 -40.3125 35.1875 -40.234375 35.0625 -40.046875 L 28.671875 -30.828125 L 27.546875 -29.140625 L 27.453125 -29.140625 L 22.65625 -40.046875 C 22.59375 -40.234375 22.5 -40.3125 22.375 -40.28125 C 22.25 -40.25 22.15625 -40.109375 22.09375 -39.859375 L 17.390625 -1.40625 C 17.328125 -0.96875 17.171875 -0.625 16.921875 -0.375 C 16.671875 -0.125 16.328125 0 15.890625 0 L 1.5 0 C 1.0625 0 0.734375 -0.125 0.515625 -0.375 C 0.296875 -0.625 0.21875 -0.96875 0.28125 -1.40625 L 7.984375 -64.390625 C 8.046875 -64.828125 8.21875 -65.171875 8.5 -65.421875 C 8.789062 -65.671875 9.125 -65.796875 9.5 -65.796875 L 23.78125 -65.796875 C 24.53125 -65.796875 25.03125 -65.453125 25.28125 -64.765625 L 30.265625 -52.546875 C 30.390625 -52.296875 30.578125 -52.296875 30.828125 -52.546875 Z M 38.640625 -64.765625 "/></g></g></g><g fill="#ff0000" fill-opacity="1"><g transform="translate(165.249971, 111.965986)"><g><path d="M 0.28125 0 C -0.15625 0 -0.484375 -0.125 -0.703125 -0.375 C -0.921875 -0.625 -1 -0.96875 -0.9375 -1.40625 L 0.375 -11.75 C 0.4375 -12.1875 0.59375 -12.53125 0.84375 -12.78125 C 1.09375 -13.03125 1.4375 -13.15625 1.875 -13.15625 L 38.828125 -13.15625 C 39.265625 -13.15625 39.59375 -13.03125 39.8125 -12.78125 C 40.03125 -12.53125 40.109375 -12.1875 40.046875 -11.75 L 38.734375 -1.40625 C 38.671875 -0.96875 38.492188 -0.625 38.203125 -0.375 C 37.921875 -0.125 37.59375 0 37.21875 0 Z M 0.28125 0 "/></g></g></g><g fill="#ff0000" fill-opacity="1"><g transform="translate(212.995091, 111.965986)"><g><path d="M 20.109375 0.75 C 14.535156 0.75 10.148438 -0.765625 6.953125 -3.796875 C 3.753906 -6.835938 2.15625 -10.960938 2.15625 -16.171875 C 2.15625 -16.796875 2.21875 -17.859375 2.34375 -19.359375 L 5.734375 -46.4375 C 6.484375 -52.570312 8.910156 -57.457031 13.015625 -61.09375 C 17.117188 -64.726562 22.242188 -66.546875 28.390625 -66.546875 C 33.898438 -66.546875 38.269531 -65.023438 41.5 -61.984375 C 44.726562 -58.953125 46.34375 -54.832031 46.34375 -49.625 C 46.34375 -49 46.28125 -47.9375 46.15625 -46.4375 L 42.859375 -19.359375 C 42.109375 -13.222656 39.664062 -8.335938 35.53125 -4.703125 C 31.394531 -1.066406 26.253906 0.75 20.109375 0.75 Z M 22 -14.375 C 22.9375 -14.375 23.734375 -14.75 24.390625 -15.5 C 25.046875 -16.257812 25.46875 -17.296875 25.65625 -18.609375 L 29.140625 -47.1875 C 29.265625 -48.5 29.109375 -49.53125 28.671875 -50.28125 C 28.234375 -51.039062 27.546875 -51.421875 26.609375 -51.421875 C 25.597656 -51.421875 24.765625 -51.039062 24.109375 -50.28125 C 23.453125 -49.53125 23.0625 -48.5 22.9375 -47.1875 L 19.453125 -18.609375 C 19.390625 -18.359375 19.359375 -18.015625 19.359375 -17.578125 C 19.359375 -16.578125 19.59375 -15.789062 20.0625 -15.21875 C 20.539062 -14.65625 21.1875 -14.375 22 -14.375 Z M 22 -14.375 "/></g></g></g><g fill="#ff0000" fill-opacity="1"><g transform="translate(263.747733, 111.965986)"><g><path d="M 25.46875 0 C 24.71875 0 24.28125 -0.40625 24.15625 -1.21875 L 21.4375 -24.90625 C 21.4375 -25.15625 21.34375 -25.28125 21.15625 -25.28125 C 20.90625 -25.28125 20.78125 -25.125 20.78125 -24.8125 L 17.859375 -1.40625 C 17.796875 -0.96875 17.625 -0.625 17.34375 -0.375 C 17.0625 -0.125 16.734375 0 16.359375 0 L 1.875 0 C 1.5 0 1.203125 -0.125 0.984375 -0.375 C 0.765625 -0.625 0.6875 -0.96875 0.75 -1.40625 L 8.453125 -64.390625 C 8.515625 -64.828125 8.6875 -65.171875 8.96875 -65.421875 C 9.257812 -65.671875 9.59375 -65.796875 9.96875 -65.796875 L 30.546875 -65.796875 C 35.554688 -65.796875 39.519531 -64.195312 42.4375 -61 C 45.351562 -57.8125 46.8125 -53.582031 46.8125 -48.3125 C 46.8125 -46.8125 46.75 -45.65625 46.625 -44.84375 C 46.1875 -41.394531 45.210938 -38.304688 43.703125 -35.578125 C 42.203125 -32.847656 40.257812 -30.640625 37.875 -28.953125 C 37.5625 -28.765625 37.46875 -28.546875 37.59375 -28.296875 L 41.640625 -1.59375 L 41.640625 -1.21875 C 41.640625 -0.84375 41.515625 -0.546875 41.265625 -0.328125 C 41.015625 -0.109375 40.703125 0 40.328125 0 Z M 24.34375 -50.671875 C 24.03125 -50.671875 23.875 -50.515625 23.875 -50.203125 L 22.46875 -39.203125 C 22.46875 -38.890625 22.625 -38.734375 22.9375 -38.734375 L 24.15625 -38.734375 C 25.65625 -38.734375 26.921875 -39.390625 27.953125 -40.703125 C 28.992188 -42.015625 29.515625 -43.832031 29.515625 -46.15625 C 29.515625 -47.59375 29.171875 -48.703125 28.484375 -49.484375 C 27.796875 -50.273438 26.851562 -50.671875 25.65625 -50.671875 Z M 24.34375 -50.671875 "/></g></g></g><g fill="#ff0000" fill-opacity="1"><g transform="translate(315.064267, 111.965986)"><g><path d="M 48.78125 -65.796875 C 49.15625 -65.796875 49.453125 -65.671875 49.671875 -65.421875 C 49.898438 -65.171875 49.976562 -64.828125 49.90625 -64.390625 L 48.40625 -52.078125 C 48.34375 -51.640625 48.1875 -51.296875 47.9375 -51.046875 C 47.6875 -50.796875 47.34375 -50.671875 46.90625 -50.671875 L 36 -50.671875 C 35.6875 -50.671875 35.53125 -50.515625 35.53125 -50.203125 L 29.515625 -1.40625 C 29.453125 -0.96875 29.296875 -0.625 29.046875 -0.375 C 28.796875 -0.125 28.453125 0 28.015625 0 L 13.625 0 C 13.1875 0 12.859375 -0.125 12.640625 -0.375 C 12.421875 -0.625 12.34375 -0.96875 12.40625 -1.40625 L 18.421875 -50.203125 C 18.421875 -50.515625 18.265625 -50.671875 17.953125 -50.671875 L 7.421875 -50.671875 C 6.984375 -50.671875 6.65625 -50.796875 6.4375 -51.046875 C 6.21875 -51.296875 6.140625 -51.640625 6.203125 -52.078125 L 7.703125 -64.390625 C 7.765625 -64.828125 7.9375 -65.171875 8.21875 -65.421875 C 8.5 -65.671875 8.863281 -65.796875 9.3125 -65.796875 Z M 48.78125 -65.796875 "/></g></g></g><g fill="#00ffff" fill-opacity="1"><g transform="translate(14.439293, 110.221504)"><g><path d="M 34.875 -64.390625 C 34.9375 -64.828125 35.109375 -65.171875 35.390625 -65.421875 C 35.671875 -65.671875 36.03125 -65.796875 36.46875 -65.796875 L 50.671875 -65.796875 C 51.109375 -65.796875 51.4375 -65.671875 51.65625 -65.421875 C 51.875 -65.171875 51.953125 -64.828125 51.890625 -64.390625 L 44.09375 -1.40625 C 44.019531 -0.96875 43.859375 -0.625 43.609375 -0.375 C 43.359375 -0.125 43.015625 0 42.578125 0 L 26.3125 0 C 25.5625 0 25.125 -0.40625 25 -1.21875 L 21.4375 -30.078125 C 21.4375 -30.265625 21.375 -30.359375 21.25 -30.359375 C 21.125 -30.359375 21.0625 -30.265625 21.0625 -30.078125 L 17.671875 -1.40625 C 17.609375 -0.96875 17.4375 -0.625 17.15625 -0.375 C 16.875 -0.125 16.546875 0 16.171875 0 L 1.875 0 C 1.5 0 1.203125 -0.125 0.984375 -0.375 C 0.765625 -0.625 0.6875 -0.96875 0.75 -1.40625 L 8.453125 -64.390625 C 8.515625 -64.828125 8.6875 -65.171875 8.96875 -65.421875 C 9.257812 -65.671875 9.59375 -65.796875 9.96875 -65.796875 L 26.03125 -65.796875 C 26.789062 -65.796875 27.234375 -65.390625 27.359375 -64.578125 L 31.015625 -35.53125 C 31.015625 -35.34375 31.078125 -35.28125 31.203125 -35.34375 C 31.328125 -35.40625 31.421875 -35.5 31.484375 -35.625 Z M 34.875 -64.390625 "/></g></g></g><g fill="#00ffff" fill-opacity="1"><g transform="translate(69.233248, 110.221504)"><g><path d="M 0.65625 0 C 0.21875 0 -0.109375 -0.125 -0.328125 -0.375 C -0.546875 -0.625 -0.625 -0.96875 -0.5625 -1.40625 L 1.03125 -14.1875 C 1.15625 -14.882812 1.375 -15.484375 1.6875 -15.984375 L 23.40625 -50.109375 C 23.59375 -50.484375 23.5 -50.671875 23.125 -50.671875 L 6.859375 -50.671875 C 6.421875 -50.671875 6.09375 -50.796875 5.875 -51.046875 C 5.65625 -51.296875 5.578125 -51.640625 5.640625 -52.078125 L 7.140625 -64.390625 C 7.203125 -64.828125 7.375 -65.171875 7.65625 -65.421875 C 7.9375 -65.671875 8.296875 -65.796875 8.734375 -65.796875 L 42.296875 -65.796875 C 42.671875 -65.796875 42.96875 -65.671875 43.1875 -65.421875 C 43.40625 -65.171875 43.484375 -64.828125 43.421875 -64.390625 L 41.921875 -51.609375 C 41.859375 -51.171875 41.640625 -50.570312 41.265625 -49.8125 L 19.359375 -15.703125 C 19.046875 -15.328125 19.140625 -15.140625 19.640625 -15.140625 L 36.09375 -15.140625 C 36.46875 -15.140625 36.765625 -15.007812 36.984375 -14.75 C 37.203125 -14.5 37.28125 -14.15625 37.21875 -13.71875 L 35.71875 -1.40625 C 35.65625 -0.96875 35.484375 -0.625 35.203125 -0.375 C 34.921875 -0.125 34.59375 0 34.21875 0 Z M 0.65625 0 "/></g></g></g><g fill="#00ffff" fill-opacity="1"><g transform="translate(114.534786, 110.221504)"><g><path d="M 38.640625 -64.765625 C 39.015625 -65.453125 39.578125 -65.796875 40.328125 -65.796875 L 54.609375 -65.796875 C 54.984375 -65.796875 55.28125 -65.671875 55.5 -65.421875 C 55.726562 -65.171875 55.804688 -64.828125 55.734375 -64.390625 L 48.03125 -1.40625 C 47.96875 -0.96875 47.796875 -0.625 47.515625 -0.375 C 47.234375 -0.125 46.90625 0 46.53125 0 L 32.046875 0 C 31.671875 0 31.375 -0.125 31.15625 -0.375 C 30.9375 -0.625 30.859375 -0.96875 30.921875 -1.40625 L 35.625 -39.859375 C 35.6875 -40.109375 35.640625 -40.25 35.484375 -40.28125 C 35.328125 -40.3125 35.1875 -40.234375 35.0625 -40.046875 L 28.671875 -30.828125 L 27.546875 -29.140625 L 27.453125 -29.140625 L 22.65625 -40.046875 C 22.59375 -40.234375 22.5 -40.3125 22.375 -40.28125 C 22.25 -40.25 22.15625 -40.109375 22.09375 -39.859375 L 17.390625 -1.40625 C 17.328125 -0.96875 17.171875 -0.625 16.921875 -0.375 C 16.671875 -0.125 16.328125 0 15.890625 0 L 1.5 0 C 1.0625 0 0.734375 -0.125 0.515625 -0.375 C 0.296875 -0.625 0.21875 -0.96875 0.28125 -1.40625 L 7.984375 -64.390625 C 8.046875 -64.828125 8.21875 -65.171875 8.5 -65.421875 C 8.789062 -65.671875 9.125 -65.796875 9.5 -65.796875 L 23.78125 -65.796875 C 24.53125 -65.796875 25.03125 -65.453125 25.28125 -64.765625 L 30.265625 -52.546875 C 30.390625 -52.296875 30.578125 -52.296875 30.828125 -52.546875 Z M 38.640625 -64.765625 "/></g></g></g><g fill="#00ffff" fill-opacity="1"><g transform="translate(172.80616, 110.221504)"><g><path d="M 0.28125 0 C -0.15625 0 -0.484375 -0.125 -0.703125 -0.375 C -0.921875 -0.625 -1 -0.96875 -0.9375 -1.40625 L 0.375 -11.75 C 0.4375 -12.1875 0.59375 -12.53125 0.84375 -12.78125 C 1.09375 -13.03125 1.4375 -13.15625 1.875 -13.15625 L 38.828125 -13.15625 C 39.265625 -13.15625 39.59375 -13.03125 39.8125 -12.78125 C 40.03125 -12.53125 40.109375 -12.1875 40.046875 -11.75 L 38.734375 -1.40625 C 38.671875 -0.96875 38.492188 -0.625 38.203125 -0.375 C 37.921875 -0.125 37.59375 0 37.21875 0 Z M 0.28125 0 "/></g></g></g><g fill="#00ffff" fill-opacity="1"><g transform="translate(220.55128, 110.221504)"><g><path d="M 20.109375 0.75 C 14.535156 0.75 10.148438 -0.765625 6.953125 -3.796875 C 3.753906 -6.835938 2.15625 -10.960938 2.15625 -16.171875 C 2.15625 -16.796875 2.21875 -17.859375 2.34375 -19.359375 L 5.734375 -46.4375 C 6.484375 -52.570312 8.910156 -57.457031 13.015625 -61.09375 C 17.117188 -64.726562 22.242188 -66.546875 28.390625 -66.546875 C 33.898438 -66.546875 38.269531 -65.023438 41.5 -61.984375 C 44.726562 -58.953125 46.34375 -54.832031 46.34375 -49.625 C 46.34375 -49 46.28125 -47.9375 46.15625 -46.4375 L 42.859375 -19.359375 C 42.109375 -13.222656 39.664062 -8.335938 35.53125 -4.703125 C 31.394531 -1.066406 26.253906 0.75 20.109375 0.75 Z M 22 -14.375 C 22.9375 -14.375 23.734375 -14.75 24.390625 -15.5 C 25.046875 -16.257812 25.46875 -17.296875 25.65625 -18.609375 L 29.140625 -47.1875 C 29.265625 -48.5 29.109375 -49.53125 28.671875 -50.28125 C 28.234375 -51.039062 27.546875 -51.421875 26.609375 -51.421875 C 25.597656 -51.421875 24.765625 -51.039062 24.109375 -50.28125 C 23.453125 -49.53125 23.0625 -48.5 22.9375 -47.1875 L 19.453125 -18.609375 C 19.390625 -18.359375 19.359375 -18.015625 19.359375 -17.578125 C 19.359375 -16.578125 19.59375 -15.789062 20.0625 -15.21875 C 20.539062 -14.65625 21.1875 -14.375 22 -14.375 Z M 22 -14.375 "/></g></g></g><g fill="#00ffff" fill-opacity="1"><g transform="translate(271.303922, 110.221504)"><g><path d="M 25.46875 0 C 24.71875 0 24.28125 -0.40625 24.15625 -1.21875 L 21.4375 -24.90625 C 21.4375 -25.15625 21.34375 -25.28125 21.15625 -25.28125 C 20.90625 -25.28125 20.78125 -25.125 20.78125 -24.8125 L 17.859375 -1.40625 C 17.796875 -0.96875 17.625 -0.625 17.34375 -0.375 C 17.0625 -0.125 16.734375 0 16.359375 0 L 1.875 0 C 1.5 0 1.203125 -0.125 0.984375 -0.375 C 0.765625 -0.625 0.6875 -0.96875 0.75 -1.40625 L 8.453125 -64.390625 C 8.515625 -64.828125 8.6875 -65.171875 8.96875 -65.421875 C 9.257812 -65.671875 9.59375 -65.796875 9.96875 -65.796875 L 30.546875 -65.796875 C 35.554688 -65.796875 39.519531 -64.195312 42.4375 -61 C 45.351562 -57.8125 46.8125 -53.582031 46.8125 -48.3125 C 46.8125 -46.8125 46.75 -45.65625 46.625 -44.84375 C 46.1875 -41.394531 45.210938 -38.304688 43.703125 -35.578125 C 42.203125 -32.847656 40.257812 -30.640625 37.875 -28.953125 C 37.5625 -28.765625 37.46875 -28.546875 37.59375 -28.296875 L 41.640625 -1.59375 L 41.640625 -1.21875 C 41.640625 -0.84375 41.515625 -0.546875 41.265625 -0.328125 C 41.015625 -0.109375 40.703125 0 40.328125 0 Z M 24.34375 -50.671875 C 24.03125 -50.671875 23.875 -50.515625 23.875 -50.203125 L 22.46875 -39.203125 C 22.46875 -38.890625 22.625 -38.734375 22.9375 -38.734375 L 24.15625 -38.734375 C 25.65625 -38.734375 26.921875 -39.390625 27.953125 -40.703125 C 28.992188 -42.015625 29.515625 -43.832031 29.515625 -46.15625 C 29.515625 -47.59375 29.171875 -48.703125 28.484375 -49.484375 C 27.796875 -50.273438 26.851562 -50.671875 25.65625 -50.671875 Z M 24.34375 -50.671875 "/></g></g></g><g fill="#00ffff" fill-opacity="1"><g transform="translate(322.620456, 110.221504)"><g><path d="M 48.78125 -65.796875 C 49.15625 -65.796875 49.453125 -65.671875 49.671875 -65.421875 C 49.898438 -65.171875 49.976562 -64.828125 49.90625 -64.390625 L 48.40625 -52.078125 C 48.34375 -51.640625 48.1875 -51.296875 47.9375 -51.046875 C 47.6875 -50.796875 47.34375 -50.671875 46.90625 -50.671875 L 36 -50.671875 C 35.6875 -50.671875 35.53125 -50.515625 35.53125 -50.203125 L 29.515625 -1.40625 C 29.453125 -0.96875 29.296875 -0.625 29.046875 -0.375 C 28.796875 -0.125 28.453125 0 28.015625 0 L 13.625 0 C 13.1875 0 12.859375 -0.125 12.640625 -0.375 C 12.421875 -0.625 12.34375 -0.96875 12.40625 -1.40625 L 18.421875 -50.203125 C 18.421875 -50.515625 18.265625 -50.671875 17.953125 -50.671875 L 7.421875 -50.671875 C 6.984375 -50.671875 6.65625 -50.796875 6.4375 -51.046875 C 6.21875 -51.296875 6.140625 -51.640625 6.203125 -52.078125 L 7.703125 -64.390625 C 7.765625 -64.828125 7.9375 -65.171875 8.21875 -65.421875 C 8.5 -65.671875 8.863281 -65.796875 9.3125 -65.796875 Z M 48.78125 -65.796875 "/></g></g></g><g fill="#0cc0df" fill-opacity="1"><g transform="translate(10.661199, 111.093746)"><g><path d="M 34.875 -64.390625 C 34.9375 -64.828125 35.109375 -65.171875 35.390625 -65.421875 C 35.671875 -65.671875 36.03125 -65.796875 36.46875 -65.796875 L 50.671875 -65.796875 C 51.109375 -65.796875 51.4375 -65.671875 51.65625 -65.421875 C 51.875 -65.171875 51.953125 -64.828125 51.890625 -64.390625 L 44.09375 -1.40625 C 44.019531 -0.96875 43.859375 -0.625 43.609375 -0.375 C 43.359375 -0.125 43.015625 0 42.578125 0 L 26.3125 0 C 25.5625 0 25.125 -0.40625 25 -1.21875 L 21.4375 -30.078125 C 21.4375 -30.265625 21.375 -30.359375 21.25 -30.359375 C 21.125 -30.359375 21.0625 -30.265625 21.0625 -30.078125 L 17.671875 -1.40625 C 17.609375 -0.96875 17.4375 -0.625 17.15625 -0.375 C 16.875 -0.125 16.546875 0 16.171875 0 L 1.875 0 C 1.5 0 1.203125 -0.125 0.984375 -0.375 C 0.765625 -0.625 0.6875 -0.96875 0.75 -1.40625 L 8.453125 -64.390625 C 8.515625 -64.828125 8.6875 -65.171875 8.96875 -65.421875 C 9.257812 -65.671875 9.59375 -65.796875 9.96875 -65.796875 L 26.03125 -65.796875 C 26.789062 -65.796875 27.234375 -65.390625 27.359375 -64.578125 L 31.015625 -35.53125 C 31.015625 -35.34375 31.078125 -35.28125 31.203125 -35.34375 C 31.328125 -35.40625 31.421875 -35.5 31.484375 -35.625 Z M 34.875 -64.390625 "/></g></g></g><g fill="#0cc0df" fill-opacity="1"><g transform="translate(65.455153, 111.093746)"><g><path d="M 0.65625 0 C 0.21875 0 -0.109375 -0.125 -0.328125 -0.375 C -0.546875 -0.625 -0.625 -0.96875 -0.5625 -1.40625 L 1.03125 -14.1875 C 1.15625 -14.882812 1.375 -15.484375 1.6875 -15.984375 L 23.40625 -50.109375 C 23.59375 -50.484375 23.5 -50.671875 23.125 -50.671875 L 6.859375 -50.671875 C 6.421875 -50.671875 6.09375 -50.796875 5.875 -51.046875 C 5.65625 -51.296875 5.578125 -51.640625 5.640625 -52.078125 L 7.140625 -64.390625 C 7.203125 -64.828125 7.375 -65.171875 7.65625 -65.421875 C 7.9375 -65.671875 8.296875 -65.796875 8.734375 -65.796875 L 42.296875 -65.796875 C 42.671875 -65.796875 42.96875 -65.671875 43.1875 -65.421875 C 43.40625 -65.171875 43.484375 -64.828125 43.421875 -64.390625 L 41.921875 -51.609375 C 41.859375 -51.171875 41.640625 -50.570312 41.265625 -49.8125 L 19.359375 -15.703125 C 19.046875 -15.328125 19.140625 -15.140625 19.640625 -15.140625 L 36.09375 -15.140625 C 36.46875 -15.140625 36.765625 -15.007812 36.984375 -14.75 C 37.203125 -14.5 37.28125 -14.15625 37.21875 -13.71875 L 35.71875 -1.40625 C 35.65625 -0.96875 35.484375 -0.625 35.203125 -0.375 C 34.921875 -0.125 34.59375 0 34.21875 0 Z M 0.65625 0 "/></g></g></g><g fill="#0cc0df" fill-opacity="1"><g transform="translate(110.756692, 111.093746)"><g><path d="M 38.640625 -64.765625 C 39.015625 -65.453125 39.578125 -65.796875 40.328125 -65.796875 L 54.609375 -65.796875 C 54.984375 -65.796875 55.28125 -65.671875 55.5 -65.421875 C 55.726562 -65.171875 55.804688 -64.828125 55.734375 -64.390625 L 48.03125 -1.40625 C 47.96875 -0.96875 47.796875 -0.625 47.515625 -0.375 C 47.234375 -0.125 46.90625 0 46.53125 0 L 32.046875 0 C 31.671875 0 31.375 -0.125 31.15625 -0.375 C 30.9375 -0.625 30.859375 -0.96875 30.921875 -1.40625 L 35.625 -39.859375 C 35.6875 -40.109375 35.640625 -40.25 35.484375 -40.28125 C 35.328125 -40.3125 35.1875 -40.234375 35.0625 -40.046875 L 28.671875 -30.828125 L 27.546875 -29.140625 L 27.453125 -29.140625 L 22.65625 -40.046875 C 22.59375 -40.234375 22.5 -40.3125 22.375 -40.28125 C 22.25 -40.25 22.15625 -40.109375 22.09375 -39.859375 L 17.390625 -1.40625 C 17.328125 -0.96875 17.171875 -0.625 16.921875 -0.375 C 16.671875 -0.125 16.328125 0 15.890625 0 L 1.5 0 C 1.0625 0 0.734375 -0.125 0.515625 -0.375 C 0.296875 -0.625 0.21875 -0.96875 0.28125 -1.40625 L 7.984375 -64.390625 C 8.046875 -64.828125 8.21875 -65.171875 8.5 -65.421875 C 8.789062 -65.671875 9.125 -65.796875 9.5 -65.796875 L 23.78125 -65.796875 C 24.53125 -65.796875 25.03125 -65.453125 25.28125 -64.765625 L 30.265625 -52.546875 C 30.390625 -52.296875 30.578125 -52.296875 30.828125 -52.546875 Z M 38.640625 -64.765625 "/></g></g></g><g fill="#0cc0df" fill-opacity="1"><g transform="translate(169.028066, 111.093746)"><g><path d="M 0.28125 0 C -0.15625 0 -0.484375 -0.125 -0.703125 -0.375 C -0.921875 -0.625 -1 -0.96875 -0.9375 -1.40625 L 0.375 -11.75 C 0.4375 -12.1875 0.59375 -12.53125 0.84375 -12.78125 C 1.09375 -13.03125 1.4375 -13.15625 1.875 -13.15625 L 38.828125 -13.15625 C 39.265625 -13.15625 39.59375 -13.03125 39.8125 -12.78125 C 40.03125 -12.53125 40.109375 -12.1875 40.046875 -11.75 L 38.734375 -1.40625 C 38.671875 -0.96875 38.492188 -0.625 38.203125 -0.375 C 37.921875 -0.125 37.59375 0 37.21875 0 Z M 0.28125 0 "/></g></g></g><g fill="#0cc0df" fill-opacity="1"><g transform="translate(216.773186, 111.093746)"><g><path d="M 20.109375 0.75 C 14.535156 0.75 10.148438 -0.765625 6.953125 -3.796875 C 3.753906 -6.835938 2.15625 -10.960938 2.15625 -16.171875 C 2.15625 -16.796875 2.21875 -17.859375 2.34375 -19.359375 L 5.734375 -46.4375 C 6.484375 -52.570312 8.910156 -57.457031 13.015625 -61.09375 C 17.117188 -64.726562 22.242188 -66.546875 28.390625 -66.546875 C 33.898438 -66.546875 38.269531 -65.023438 41.5 -61.984375 C 44.726562 -58.953125 46.34375 -54.832031 46.34375 -49.625 C 46.34375 -49 46.28125 -47.9375 46.15625 -46.4375 L 42.859375 -19.359375 C 42.109375 -13.222656 39.664062 -8.335938 35.53125 -4.703125 C 31.394531 -1.066406 26.253906 0.75 20.109375 0.75 Z M 22 -14.375 C 22.9375 -14.375 23.734375 -14.75 24.390625 -15.5 C 25.046875 -16.257812 25.46875 -17.296875 25.65625 -18.609375 L 29.140625 -47.1875 C 29.265625 -48.5 29.109375 -49.53125 28.671875 -50.28125 C 28.234375 -51.039062 27.546875 -51.421875 26.609375 -51.421875 C 25.597656 -51.421875 24.765625 -51.039062 24.109375 -50.28125 C 23.453125 -49.53125 23.0625 -48.5 22.9375 -47.1875 L 19.453125 -18.609375 C 19.390625 -18.359375 19.359375 -18.015625 19.359375 -17.578125 C 19.359375 -16.578125 19.59375 -15.789062 20.0625 -15.21875 C 20.539062 -14.65625 21.1875 -14.375 22 -14.375 Z M 22 -14.375 "/></g></g></g><g fill="#0cc0df" fill-opacity="1"><g transform="translate(267.525827, 111.093746)"><g><path d="M 25.46875 0 C 24.71875 0 24.28125 -0.40625 24.15625 -1.21875 L 21.4375 -24.90625 C 21.4375 -25.15625 21.34375 -25.28125 21.15625 -25.28125 C 20.90625 -25.28125 20.78125 -25.125 20.78125 -24.8125 L 17.859375 -1.40625 C 17.796875 -0.96875 17.625 -0.625 17.34375 -0.375 C 17.0625 -0.125 16.734375 0 16.359375 0 L 1.875 0 C 1.5 0 1.203125 -0.125 0.984375 -0.375 C 0.765625 -0.625 0.6875 -0.96875 0.75 -1.40625 L 8.453125 -64.390625 C 8.515625 -64.828125 8.6875 -65.171875 8.96875 -65.421875 C 9.257812 -65.671875 9.59375 -65.796875 9.96875 -65.796875 L 30.546875 -65.796875 C 35.554688 -65.796875 39.519531 -64.195312 42.4375 -61 C 45.351562 -57.8125 46.8125 -53.582031 46.8125 -48.3125 C 46.8125 -46.8125 46.75 -45.65625 46.625 -44.84375 C 46.1875 -41.394531 45.210938 -38.304688 43.703125 -35.578125 C 42.203125 -32.847656 40.257812 -30.640625 37.875 -28.953125 C 37.5625 -28.765625 37.46875 -28.546875 37.59375 -28.296875 L 41.640625 -1.59375 L 41.640625 -1.21875 C 41.640625 -0.84375 41.515625 -0.546875 41.265625 -0.328125 C 41.015625 -0.109375 40.703125 0 40.328125 0 Z M 24.34375 -50.671875 C 24.03125 -50.671875 23.875 -50.515625 23.875 -50.203125 L 22.46875 -39.203125 C 22.46875 -38.890625 22.625 -38.734375 22.9375 -38.734375 L 24.15625 -38.734375 C 25.65625 -38.734375 26.921875 -39.390625 27.953125 -40.703125 C 28.992188 -42.015625 29.515625 -43.832031 29.515625 -46.15625 C 29.515625 -47.59375 29.171875 -48.703125 28.484375 -49.484375 C 27.796875 -50.273438 26.851562 -50.671875 25.65625 -50.671875 Z M 24.34375 -50.671875 "/></g></g></g><g fill="#0cc0df" fill-opacity="1"><g transform="translate(318.842362, 111.093746)"><g><path d="M 48.78125 -65.796875 C 49.15625 -65.796875 49.453125 -65.671875 49.671875 -65.421875 C 49.898438 -65.171875 49.976562 -64.828125 49.90625 -64.390625 L 48.40625 -52.078125 C 48.34375 -51.640625 48.1875 -51.296875 47.9375 -51.046875 C 47.6875 -50.796875 47.34375 -50.671875 46.90625 -50.671875 L 36 -50.671875 C 35.6875 -50.671875 35.53125 -50.515625 35.53125 -50.203125 L 29.515625 -1.40625 C 29.453125 -0.96875 29.296875 -0.625 29.046875 -0.375 C 28.796875 -0.125 28.453125 0 28.015625 0 L 13.625 0 C 13.1875 0 12.859375 -0.125 12.640625 -0.375 C 12.421875 -0.625 12.34375 -0.96875 12.40625 -1.40625 L 18.421875 -50.203125 C 18.421875 -50.515625 18.265625 -50.671875 17.953125 -50.671875 L 7.421875 -50.671875 C 6.984375 -50.671875 6.65625 -50.796875 6.4375 -51.046875 C 6.21875 -51.296875 6.140625 -51.640625 6.203125 -52.078125 L 7.703125 -64.390625 C 7.765625 -64.828125 7.9375 -65.171875 8.21875 -65.421875 C 8.5 -65.671875 8.863281 -65.796875 9.3125 -65.796875 Z M 48.78125 -65.796875 "/></g></g></g></svg>